<svg xmlns="http://www.w3.org/2000/svg" width="200" height="130"><g id="surface1"><path style="fill:#012169;fill-opacity:1;stroke:none" d="M0 0h200v130H0z"/><path style="stroke:none;fill-rule:nonzero;fill:#fff;fill-opacity:1" d="m23.438 0 76.25 49.02L175.625 0H200v16.793L125 65.27l75 48.21V130h-25l-75-48.48L25.312 130H0v-16.25l74.688-48.207L0 17.332V0Zm0 0"/><path style="stroke:none;fill-rule:nonzero;fill:#c8102e;fill-opacity:1" d="m132.5 76.105 67.5 43.063V130l-84.688-53.895ZM75 81.52 76.875 91l-60 39H0ZM200 0v.813L122.187 51.73l.626-11.917L184.375 0ZM0 0l74.688 47.668h-18.75L0 11.375Zm0 0"/><path style="stroke:none;fill-rule:nonzero;fill:#fff;fill-opacity:1" d="M75.313 0v130h50V0ZM0 43.332v43.336h200V43.332Zm0 0"/><path style="stroke:none;fill-rule:nonzero;fill:#c8102e;fill-opacity:1" d="M0 52.27v26h200v-26ZM85.313 0v130h30V0Zm0 0"/></g></svg>